<?xml version="1.0" encoding="UTF-8" standalone="no"?>
<!-- Created with Inkscape (http://www.inkscape.org/) -->

<svg
   xmlns:dc="http://purl.org/dc/elements/1.1/"
   xmlns:cc="http://creativecommons.org/ns#"
   xmlns:rdf="http://www.w3.org/1999/02/22-rdf-syntax-ns#"
   xmlns:svg="http://www.w3.org/2000/svg"
   xmlns="http://www.w3.org/2000/svg"
   xmlns:sodipodi="http://sodipodi.sourceforge.net/DTD/sodipodi-0.dtd"
   xmlns:inkscape="http://www.inkscape.org/namespaces/inkscape"
   width="329.70554mm"
   height="80.374382mm"
   viewBox="0 0 329.70554 80.374382"
   version="1.1"
   id="svg8"
   inkscape:version="0.92.4 (5da689c313, 2019-01-14)"
   sodipodi:docname="car.svg">
  <defs
     id="defs2" />
  <sodipodi:namedview
     id="base"
     pagecolor="#ffffff"
     bordercolor="#666666"
     borderopacity="1.0"
     inkscape:pageopacity="0.0"
     inkscape:pageshadow="2"
     inkscape:zoom="0.35"
     inkscape:cx="674.56892"
     inkscape:cy="44.950734"
     inkscape:document-units="mm"
     inkscape:current-layer="layer1"
     showgrid="false"
     inkscape:window-width="1080"
     inkscape:window-height="1857"
     inkscape:window-x="-8"
     inkscape:window-y="-8"
     inkscape:window-maximized="1"
     width="200mm"
     fit-margin-top="0"
     fit-margin-left="0"
     fit-margin-right="0"
     fit-margin-bottom="0" />
  <metadata
     id="metadata5">
    <rdf:RDF>
      <cc:Work
         rdf:about="">
        <dc:format>image/svg+xml</dc:format>
        <dc:type
           rdf:resource="http://purl.org/dc/dcmitype/StillImage" />
        <dc:title></dc:title>
      </cc:Work>
    </rdf:RDF>
  </metadata>
  <g
     inkscape:label="Layer 1"
     inkscape:groupmode="layer"
     id="layer1"
     transform="translate(228.87346,-61.177821)">
    <path
       id="path4520"
       style="fill:#000000;fill-opacity:1;stroke:#000000;stroke-width:0.26458332px;stroke-linecap:butt;stroke-linejoin:miter;stroke-opacity:1"
       d="m -163.53168,133.30388 c 0,0 -8.94278,-40.687492 25.94835,-40.789007 38.331711,-0.111526 24.86584,41.558387 24.86584,41.558387 l 131.27496,-0.1107 c 0,0 -10.289712,-40.709109 27.46582,-38.110744 26.107829,1.796761 20.375992,21.773914 21.509922,34.247124 0,0 24.329897,-1.91612 25.686637,-3.0238 1.62373,-1.32566 7.658201,-14.23124 7.475681,-17.0849 -0.18252,-2.85366 -10.662526,-13.141078 -10.431846,-15.745301 0.23067,-2.604223 3.860812,-5.9749 3.860812,-5.9749 C 58.730499,78.739048 17.47172,68.264166 -22.962669,63.225786 c -41.334545,-4.2997 -79.779841,-2.303354 -124.353551,15.776446 -14.69434,0.05189 -77.95758,35.057288 -77.95758,35.057288 l 2.55134,0.94494 0.94493,7.55952 c 0,0 -0.28618,0.50629 -1.98437,2.07887 -1.69819,1.57258 -6.43915,6.73192 -4.53571,7.55953 3.10958,0.27439 15.14268,2.17336 15.14268,2.17336 50.62517,-0.47247 49.62325,-1.07186 49.62325,-1.07186 z"
       inkscape:connector-curvature="0"
       sodipodi:nodetypes="csccscszzcccccczccc" />
    <circle
       style="opacity:1;fill:#000000;fill-opacity:1;stroke:none;stroke-width:0.26499999;stroke-linejoin:round;stroke-miterlimit:4;stroke-dasharray:none;stroke-opacity:1;paint-order:stroke fill markers"
       id="path4524"
       cx="-137.62918"
       cy="110.55816"
       r="30.994047" />
    <circle
       r="30.994047"
       cy="108.73312"
       cx="41.644146"
       id="circle4528"
       style="opacity:1;fill:#000000;fill-opacity:1;stroke:none;stroke-width:0.26499999;stroke-linejoin:round;stroke-miterlimit:4;stroke-dasharray:none;stroke-opacity:1;paint-order:stroke fill markers" />
  </g>
</svg>
