<svg width="1246.1" height="303.8" viewBox="0 0 329.7 80.4" xmlns="http://www.w3.org/2000/svg"><g transform="translate(228.9 -61.2)"><path d="M-163.5 133.3s-9-40.7 26-40.8c38.3-.1 24.8 41.6 24.8 41.6l131.3-.1S8.3 93.2 46 95.8c26.1 1.8 20.4 21.8 21.5 34.3 0 0 24.4-2 25.7-3 1.6-1.4 7.7-14.3 7.5-17.1S90 96.8 90.3 94.2c.2-2.6 3.8-6 3.8-6-35.4-9.5-76.6-20-117-25C-64.4 59-102.8 61-147.4 79c-14.7 0-78 35-78 35l2.6 1 1 7.6s-.4.5-2 2-6.5 6.8-4.6 7.6c3.1.3 15.1 2.2 15.1 2.2 50.7-.5 49.7-1.1 49.7-1.1z" stroke="#000" stroke-width="0"/><circle cx="-137.6" cy="110.6" r="31" paint-order="stroke fill markers"/><circle cx="41.6" cy="108.7" r="31" paint-order="stroke fill markers"/></g></svg>
